<svg xmlns="http://www.w3.org/2000/svg" viewBox="0 0 1300 920">
        <!-- Definitions -->
        <defs>
          <marker id="arrow" markerWidth="10" markerHeight="7" refX="9" refY="3.5" orient="auto">
            <polygon points="0 0, 10 3.5, 0 7" fill="#64748b"/>
          </marker>
          <marker id="arrow-cyan" markerWidth="10" markerHeight="7" refX="9" refY="3.5" orient="auto">
            <polygon points="0 0, 10 3.5, 0 7" fill="#22d3ee"/>
          </marker>
          <marker id="arrow-green" markerWidth="10" markerHeight="7" refX="9" refY="3.5" orient="auto">
            <polygon points="0 0, 10 3.5, 0 7" fill="#34d399"/>
          </marker>
          <marker id="arrow-violet" markerWidth="10" markerHeight="7" refX="9" refY="3.5" orient="auto">
            <polygon points="0 0, 10 3.5, 0 7" fill="#a78bfa"/>
          </marker>
          <marker id="arrow-amber" markerWidth="10" markerHeight="7" refX="9" refY="3.5" orient="auto">
            <polygon points="0 0, 10 3.5, 0 7" fill="#fbbf24"/>
          </marker>
          <marker id="arrow-rose" markerWidth="10" markerHeight="7" refX="9" refY="3.5" orient="auto">
            <polygon points="0 0, 10 3.5, 0 7" fill="#fb7185"/>
          </marker>
          <pattern id="grid" width="40" height="40" patternUnits="userSpaceOnUse">
            <path d="M 40 0 L 0 0 0 40" fill="none" stroke="#1e293b" stroke-width="0.5"/>
          </pattern>
          <!-- Icons as small SVG symbols -->
          <symbol id="icon-search" viewBox="0 0 24 24" fill="none" stroke="currentColor" stroke-width="2">
            <circle cx="11" cy="11" r="8"/><path d="m21 21-4.3-4.3"/>
          </symbol>
          <symbol id="icon-eye" viewBox="0 0 24 24" fill="none" stroke="currentColor" stroke-width="2">
            <path d="M1 12s4-8 11-8 11 8 11 8-4 8-11 8-11-8-11-8z"/><circle cx="12" cy="12" r="3"/>
          </symbol>
          <symbol id="icon-brain" viewBox="0 0 24 24" fill="none" stroke="currentColor" stroke-width="2">
            <path d="M12 2a4 4 0 0 0-4 4c0 1.5.8 2.8 2 3.5V11H8a4 4 0 0 0 0 8h.5l1.5 3h4l1.5-3H16a4 4 0 0 0 0-8h-2V9.5c1.2-.7 2-2 2-3.5a4 4 0 0 0-4-4z"/>
          </symbol>
          <symbol id="icon-vote" viewBox="0 0 24 24" fill="none" stroke="currentColor" stroke-width="2">
            <path d="M12 2l3.09 6.26L22 9.27l-5 4.87 1.18 6.88L12 17.77l-6.18 3.25L7 14.14 2 9.27l6.91-1.01L12 2z"/>
          </symbol>
          <symbol id="icon-zap" viewBox="0 0 24 24" fill="none" stroke="currentColor" stroke-width="2">
            <polygon points="13 2 3 14 12 14 11 22 21 10 12 10 13 2"/>
          </symbol>
          <symbol id="icon-shield" viewBox="0 0 24 24" fill="none" stroke="currentColor" stroke-width="2">
            <path d="M12 22s8-4 8-10V5l-8-3-8 3v7c0 6 8 10 8 10z"/>
          </symbol>
          <symbol id="icon-database" viewBox="0 0 24 24" fill="none" stroke="currentColor" stroke-width="2">
            <ellipse cx="12" cy="5" rx="9" ry="3"/><path d="M21 12c0 1.66-4 3-9 3s-9-1.34-9-3"/><path d="M3 5v14c0 1.66 4 3 9 3s9-1.34 9-3V5"/>
          </symbol>
          <symbol id="icon-users" viewBox="0 0 24 24" fill="none" stroke="currentColor" stroke-width="2">
            <path d="M17 21v-2a4 4 0 0 0-4-4H5a4 4 0 0 0-4 4v2"/><circle cx="9" cy="7" r="4"/><path d="M23 21v-2a4 4 0 0 0-3-3.87"/><path d="M16 3.13a4 4 0 0 1 0 7.75"/>
          </symbol>
          <symbol id="icon-message" viewBox="0 0 24 24" fill="none" stroke="currentColor" stroke-width="2">
            <path d="M21 15a2 2 0 0 1-2 2H7l-4 4V5a2 2 0 0 1 2-2h14a2 2 0 0 1 2 2z"/>
          </symbol>
          <symbol id="icon-clipboard" viewBox="0 0 24 24" fill="none" stroke="currentColor" stroke-width="2">
            <path d="M16 4h2a2 2 0 0 1 2 2v14a2 2 0 0 1-2 2H6a2 2 0 0 1-2-2V6a2 2 0 0 1 2-2h2"/>
            <rect x="8" y="2" width="8" height="4" rx="1" ry="1"/>
          </symbol>
          <symbol id="icon-feishu" viewBox="0 0 24 24" fill="none" stroke="currentColor" stroke-width="2">
            <path d="M15 3h6v6"/><path d="M10 14 21 3"/><path d="M18 13v6a2 2 0 0 1-2 2H5a2 2 0 0 1-2-2V8a2 2 0 0 1 2-2h6"/>
          </symbol>
        </defs>

        <!-- Background Grid -->
        <rect width="100%" height="100%" fill="url(#grid)"/>

        <!-- ============================================================
             REGION: External Data Sources (Left)
             ============================================================ -->
        <rect x="30" y="30" width="220" height="280" rx="12" fill="rgba(30, 41, 59, 0.3)" stroke="#475569" stroke-width="1" stroke-dasharray="6,3"/>
        <text x="140" y="52" fill="#94a3b8" font-size="10" font-weight="600" text-anchor="middle">External Data Sources</text>

        <!-- Data Sources -->
        <rect x="50" y="65" width="180" height="36" rx="5" fill="rgba(30, 41, 59, 0.5)" stroke="#64748b" stroke-width="1"/>
        <text x="140" y="87" fill="#94a3b8" font-size="10" text-anchor="middle">🌐 微博热搜 · 雪球热帖</text>

        <rect x="50" y="110" width="180" height="36" rx="5" fill="rgba(30, 41, 59, 0.5)" stroke="#64748b" stroke-width="1"/>
        <text x="140" y="132" fill="#94a3b8" font-size="10" text-anchor="middle">📰 长桥新闻 · 财经媒体</text>

        <rect x="50" y="155" width="180" height="36" rx="5" fill="rgba(30, 41, 59, 0.5)" stroke="#64748b" stroke-width="1"/>
        <text x="140" y="177" fill="#94a3b8" font-size="10" text-anchor="middle">📊 Longbridge 实时行情</text>

        <rect x="50" y="200" width="180" height="36" rx="5" fill="rgba(30, 41, 59, 0.5)" stroke="#64748b" stroke-width="1"/>
        <text x="140" y="222" fill="#94a3b8" font-size="10" text-anchor="middle">📈 价格异动 · K线数据</text>

        <rect x="50" y="245" width="180" height="36" rx="5" fill="rgba(30, 41, 59, 0.5)" stroke="#64748b" stroke-width="1"/>
        <text x="140" y="267" fill="#94a3b8" font-size="10" text-anchor="middle">📚 交易书籍/课程策略库</text>

        <!-- ============================================================
             DEPARTMENT 1: 选股部门 (Stock Selection)
             ============================================================ -->
        <rect x="290" y="30" width="240" height="280" rx="12" fill="rgba(251, 191, 36, 0.05)" stroke="#fbbf24" stroke-width="1"/>
        <text x="410" y="52" fill="#fbbf24" font-size="10" font-weight="600" text-anchor="middle">🏢 选股部门 Stock Selection</text>

        <!-- Agents inside -->
        <rect x="305" y="70" width="210" height="55" rx="6" fill="rgba(120, 53, 15, 0.3)" stroke="#fbbf24" stroke-width="1.5"/>
        <text x="410" y="90" fill="white" font-size="11" font-weight="600" text-anchor="middle">📰 舆情/新闻 Agent</text>
        <text x="410" y="108" fill="#fbbf24" font-size="8" text-anchor="middle">新闻抓取 · 利好/利空判断</text>
        <text x="410" y="120" fill="#94a3b8" font-size="7" text-anchor="middle">长桥新闻 + 主流财经媒体</text>

        <rect x="305" y="135" width="210" height="55" rx="6" fill="rgba(120, 53, 15, 0.3)" stroke="#fbbf24" stroke-width="1.5"/>
        <text x="410" y="155" fill="white" font-size="11" font-weight="600" text-anchor="middle">🌐 社媒爬虫 Agent ×2</text>
        <text x="410" y="173" fill="#fbbf24" font-size="8" text-anchor="middle">热点监控 · 舆情信号</text>
        <text x="410" y="185" fill="#94a3b8" font-size="7" text-anchor="middle">微博热搜 · 雪球热帖</text>

        <rect x="305" y="200" width="210" height="55" rx="6" fill="rgba(120, 53, 15, 0.3)" stroke="#fbbf24" stroke-width="1.5"/>
        <text x="410" y="220" fill="white" font-size="11" font-weight="600" text-anchor="middle">📊 价格异动 Agent</text>
        <text x="410" y="238" fill="#fbbf24" font-size="8" text-anchor="middle">实时行情监控 · 异动检测</text>
        <text x="410" y="250" fill="#94a3b8" font-size="7" text-anchor="middle">暴涨暴跌 · 放量突破</text>

        <!-- Data arrows: sources → selection agents -->
        <line x1="230" y1="83" x2="303" y2="83" stroke="#fbbf24" stroke-width="1" marker-end="url(#arrow-amber)"/>
        <line x1="230" y1="128" x2="303" y2="145" stroke="#fbbf24" stroke-width="1" marker-end="url(#arrow-amber)"/>
        <line x1="230" y1="173" x2="303" y2="210" stroke="#fbbf24" stroke-width="1" marker-end="url(#arrow-amber)"/>
        <line x1="230" y1="218" x2="303" y2="220" stroke="#fbbf24" stroke-width="1" stroke-dasharray="3,3" marker-end="url(#arrow-amber)"/>

        <!-- ============================================================
             REGION: Stock Pool + Watch
             ============================================================ -->
        <rect x="560" y="70" width="170" height="100" rx="8" fill="rgba(76, 29, 149, 0.15)" stroke="#a78bfa" stroke-width="1" stroke-dasharray="4,4"/>
        <text x="645" y="92" fill="#a78bfa" font-size="9" font-weight="600" text-anchor="middle">📋 候选股池</text>
        <text x="645" y="108" fill="#94a3b8" font-size="8" text-anchor="middle">stock_pool (SQLite)</text>
        <text x="645" y="122" fill="#94a3b8" font-size="7" text-anchor="middle">symbol · signal_strength</text>
        <text x="645" y="136" fill="#94a3b8" font-size="7" text-anchor="middle">source · reason · status</text>
        <text x="645" y="155" fill="#a78bfa" font-size="7" text-anchor="middle">利好→加入 | 利空→移除</text>

        <!-- Arrow: selection → pool -->
        <line x1="530" y1="120" x2="558" y2="120" stroke="#a78bfa" stroke-width="1.5" marker-end="url(#arrow-violet)"/>
        <text x="544" y="114" fill="#a78bfa" font-size="7">写入</text>

        <!-- ============================================================
             DEPARTMENT 2: 盯盘部门 (Watch)
             ============================================================ -->
        <rect x="560" y="200" width="170" height="80" rx="6" fill="rgba(8, 51, 68, 0.4)" stroke="#22d3ee" stroke-width="1.5"/>
        <text x="645" y="225" fill="white" font-size="11" font-weight="600" text-anchor="middle">👁 盯盘部门</text>
        <text x="645" y="243" fill="#22d3ee" font-size="8" text-anchor="middle">事件驱动 · 发起投票</text>
        <text x="645" y="258" fill="#94a3b8" font-size="7" text-anchor="middle">同票 30min 冷却</text>
        <text x="645" y="272" fill="#94a3b8" font-size="7" text-anchor="middle">止损/止盈强制触发</text>

        <!-- Arrow: pool → watch -->
        <line x1="645" y1="170" x2="645" y2="198" stroke="#22d3ee" stroke-width="1.5" marker-end="url(#arrow-cyan)"/>
        <text x="660" y="188" fill="#22d3ee" font-size="7">监听</text>

        <!-- ============================================================
             DEPARTMENT 3: 策略部门 (Strategy Agents ×50)
             ============================================================ -->
        <rect x="290" y="340" width="610" height="210" rx="12" fill="rgba(34, 211, 238, 0.03)" stroke="#22d3ee" stroke-width="1" stroke-dasharray="6,3"/>
        <text x="595" y="362" fill="#22d3ee" font-size="10" font-weight="600" text-anchor="middle">🧠 策略部门 Strategy Department (≤50 Dynamic Agents)</text>

        <!-- Group: Tech Strategies -->
        <rect x="305" y="375" width="185" height="155" rx="8" fill="rgba(8, 51, 68, 0.2)" stroke="#22d3ee" stroke-width="0.5"/>
        <text x="397" y="395" fill="#22d3ee" font-size="9" font-weight="600" text-anchor="middle">📈 技术分析组</text>

        <rect x="315" y="405" width="165" height="28" rx="4" fill="rgba(8, 51, 68, 0.4)" stroke="#22d3ee" stroke-width="1"/>
        <text x="397" y="423" fill="white" font-size="9" text-anchor="middle">MA 均线交叉 · AGT-001</text>

        <rect x="315" y="438" width="165" height="28" rx="4" fill="rgba(8, 51, 68, 0.4)" stroke="#22d3ee" stroke-width="1"/>
        <text x="397" y="456" fill="white" font-size="9" text-anchor="middle">MACD 金叉死叉 · AGT-002</text>

        <rect x="315" y="471" width="165" height="28" rx="4" fill="rgba(8, 51, 68, 0.4)" stroke="#22d3ee" stroke-width="1"/>
        <text x="397" y="489" fill="white" font-size="9" text-anchor="middle">布林带突破 · AGT-004</text>

        <rect x="315" y="504" width="165" height="20" rx="4" fill="rgba(34, 211, 238, 0.1)" stroke="#22d3ee" stroke-width="0.5" stroke-dasharray="2,2"/>
        <text x="397" y="517" fill="#475569" font-size="7" text-anchor="middle">+ 更多动态生成...</text>

        <!-- Group: Momentum / Trend -->
        <rect x="500" y="375" width="185" height="155" rx="8" fill="rgba(6, 78, 59, 0.15)" stroke="#34d399" stroke-width="0.5"/>
        <text x="592" y="395" fill="#34d399" font-size="9" font-weight="600" text-anchor="middle">📊 动量/趋势组</text>

        <rect x="510" y="405" width="165" height="28" rx="4" fill="rgba(6, 78, 59, 0.4)" stroke="#34d399" stroke-width="1"/>
        <text x="592" y="423" fill="white" font-size="9" text-anchor="middle">RSI 超买超卖 · AGT-003</text>

        <rect x="510" y="438" width="165" height="28" rx="4" fill="rgba(6, 78, 59, 0.4)" stroke="#34d399" stroke-width="1"/>
        <text x="592" y="456" fill="white" font-size="9" text-anchor="middle">海龟交易法 · AGT-005</text>

        <rect x="510" y="471" width="165" height="28" rx="4" fill="rgba(6, 78, 59, 0.4)" stroke="#34d399" stroke-width="1"/>
        <text x="592" y="489" fill="white" font-size="9" text-anchor="middle">Momentum · AGT-XXX</text>

        <rect x="510" y="504" width="165" height="20" rx="4" fill="rgba(52, 211, 153, 0.1)" stroke="#34d399" stroke-width="0.5" stroke-dasharray="2,2"/>
        <text x="592" y="517" fill="#475569" font-size="7" text-anchor="middle">+ 更多动态生成...</text>

        <!-- Group: Fundamentals -->
        <rect x="695" y="375" width="185" height="155" rx="8" fill="rgba(76, 29, 149, 0.15)" stroke="#a78bfa" stroke-width="0.5"/>
        <text x="787" y="395" fill="#a78bfa" font-size="9" font-weight="600" text-anchor="middle">🔬 基本面/价值组</text>

        <rect x="705" y="405" width="165" height="28" rx="4" fill="rgba(76, 29, 149, 0.3)" stroke="#a78bfa" stroke-width="1"/>
        <text x="787" y="423" fill="white" font-size="9" text-anchor="middle">价值投资 · AGT-XXX</text>

        <rect x="705" y="438" width="165" height="28" rx="4" fill="rgba(76, 29, 149, 0.3)" stroke="#a78bfa" stroke-width="1"/>
        <text x="787" y="456" fill="white" font-size="9" text-anchor="middle">CANSLIM · AGT-XXX</text>

        <rect x="705" y="471" width="165" height="28" rx="4" fill="rgba(76, 29, 149, 0.3)" stroke="#a78bfa" stroke-width="1"/>
        <text x="787" y="489" fill="white" font-size="9" text-anchor="middle">Piotroski · AGT-XXX</text>

        <rect x="705" y="504" width="165" height="20" rx="4" fill="rgba(167, 139, 250, 0.1)" stroke="#a78bfa" stroke-width="0.5" stroke-dasharray="2,2"/>
        <text x="787" y="517" fill="#475569" font-size="7" text-anchor="middle">+ 更多动态生成...</text>

        <!-- Arrows: watch → strategy agents -->
        <line x1="645" y1="280" x2="645" y2="338" stroke="#22d3ee" stroke-width="1.5" marker-end="url(#arrow-cyan)"/>
        <text x="660" y="315" fill="#22d3ee" font-size="8">并发投票通知</text>
        <text x="660" y="327" fill="#94a3b8" font-size="7">50 agents 并行分析</text>

        <line x1="397" y1="338" x2="397" y2="373" stroke="#22d3ee" stroke-width="0.5"/>
        <line x1="592" y1="338" x2="592" y2="373" stroke="#22d3ee" stroke-width="0.5"/>
        <line x1="787" y1="338" x2="787" y2="373" stroke="#22d3ee" stroke-width="0.5"/>

        <!-- ============================================================
             DEPARTMENT 4: 选举委员会 (Election Committee)
             ============================================================ -->
        <rect x="290" y="580" width="240" height="80" rx="8" fill="rgba(251, 146, 60, 0.1)" stroke="#fb923c" stroke-width="1.5"/>
        <text x="410" y="605" fill="white" font-size="11" font-weight="600" text-anchor="middle">🗳 选举委员会</text>
        <text x="410" y="623" fill="#fb923c" font-size="8" text-anchor="middle">加权投票聚合 · 5步决策算法</text>
        <text x="410" y="638" fill="#94a3b8" font-size="7" text-anchor="middle">buy/sell/hold 三方加权 → 最终决策</text>
        <text x="410" y="652" fill="#64748b" font-size="7" text-anchor="middle">weight = win_rate × log₂(1+trades) × confidence</text>

        <!-- Arrows: strategy → election -->
        <line x1="397" y1="555" x2="397" y2="578" stroke="#fb923c" stroke-width="1.5" marker-end="url(#arrow-amber)"/>
        <line x1="592" y1="555" x2="500" y2="578" stroke="#fb923c" stroke-width="1"/>
        <line x1="787" y1="555" x2="530" y2="578" stroke="#fb923c" stroke-width="1"/>

        <!-- ============================================================
             DEPARTMENT 5: 执行部门 (Execution)
             ============================================================ -->
        <rect x="560" y="580" width="210" height="80" rx="8" fill="rgba(6, 78, 59, 0.4)" stroke="#34d399" stroke-width="1.5"/>
        <text x="665" y="605" fill="white" font-size="11" font-weight="600" text-anchor="middle">⚡ 执行部门</text>
        <text x="665" y="623" fill="#34d399" font-size="8" text-anchor="middle">下单执行 · 风控熔断</text>
        <text x="665" y="638" fill="#94a3b8" font-size="7" text-anchor="middle">Longbridge 模拟盘 · 美股MO/港股LO</text>
        <text x="665" y="652" fill="#64748b" font-size="7" text-anchor="middle">max_position 20% · daily_trades 10</text>

        <!-- Arrow: election → execution -->
        <line x1="530" y1="620" x2="558" y2="620" stroke="#34d399" stroke-width="1.5" marker-end="url(#arrow-green)"/>
        <text x="544" y="614" fill="#34d399" font-size="7">决策</text>

        <!-- ============================================================
             Longbridge API (right side)
             ============================================================ -->
        <rect x="800" y="580" width="160" height="80" rx="8" fill="rgba(120, 53, 15, 0.3)" stroke="#fbbf24" stroke-width="1.5"/>
        <text x="880" y="605" fill="white" font-size="11" font-weight="600" text-anchor="middle">📡 Longbridge</text>
        <text x="880" y="623" fill="#fbbf24" font-size="8" text-anchor="middle">OpenAPI 模拟盘</text>
        <text x="880" y="638" fill="#94a3b8" font-size="7" text-anchor="middle">QuoteContext / TradeContext</text>
        <text x="880" y="652" fill="#94a3b8" font-size="7" text-anchor="middle">WebSocket 实时推送</text>

        <!-- Arrow: execution → Longbridge -->
        <line x1="770" y1="620" x2="798" y2="620" stroke="#fbbf24" stroke-width="1.5" marker-end="url(#arrow-amber)"/>
        <text x="784" y="614" fill="#fbbf24" font-size="7">下单</text>

        <!-- ============================================================
             SQLite Database (bottom)
             ============================================================ -->
        <rect x="290" y="690" width="610" height="70" rx="8" fill="rgba(76, 29, 149, 0.15)" stroke="#a78bfa" stroke-width="1.5" stroke-dasharray="4,4"/>
        <text x="595" y="712" fill="white" font-size="11" font-weight="600" text-anchor="middle">🗄 SQLite — 共享数据层</text>
        <text x="595" y="730" fill="#94a3b8" font-size="8" text-anchor="middle">agents · trades · agent_votes · win_reports · agent_status_log · election_rounds · stock_pool · strategy_signatures</text>
        <text x="595" y="748" fill="#64748b" font-size="7" text-anchor="middle">所有 54 个 Agent 共享读写同一份 data/trading.db</text>

        <!-- Arrows: departments → DB -->
        <line x1="397" y1="660" x2="397" y2="688" stroke="#a78bfa" stroke-width="1" marker-end="url(#arrow-violet)"/>
        <line x1="665" y1="660" x2="665" y2="688" stroke="#a78bfa" stroke-width="1" marker-end="url(#arrow-violet)"/>
        <line x1="410" y1="305" x2="400" y2="360" stroke="#a78bfa" stroke-width="0.5" stroke-dasharray="3,3"/>

        <!-- ============================================================
             DEPARTMENT 6: 审计部门 (Auditor + HR) — Right side
             ============================================================ -->
        <rect x="990" y="100" width="280" height="260" rx="12" fill="rgba(136, 19, 55, 0.05)" stroke="#fb7185" stroke-width="1.5"/>
        <text x="1130" y="122" fill="#fb7185" font-size="10" font-weight="600" text-anchor="middle">🛡 审计 + HR 部门</text>

        <rect x="1005" y="138" width="250" height="40" rx="5" fill="rgba(136, 19, 55, 0.2)" stroke="#fb7185" stroke-width="0.5"/>
        <text x="1130" y="155" fill="white" font-size="9" font-weight="600" text-anchor="middle">📊 胜率统计</text>
        <text x="1130" y="170" fill="#94a3b8" font-size="7" text-anchor="middle">扫描 win_reports · 超时→MISS · 更新排名</text>

        <rect x="1005" y="185" width="250" height="40" rx="5" fill="rgba(136, 19, 55, 0.2)" stroke="#fb7185" stroke-width="0.5"/>
        <text x="1130" y="202" fill="white" font-size="9" font-weight="600" text-anchor="middle">🔄 淘汰/复活</text>
        <text x="1130" y="217" fill="#94a3b8" font-size="7" text-anchor="middle">ACTIVE→SHADOW(10笔)→复活/TERMINATED</text>

        <rect x="1005" y="232" width="250" height="40" rx="5" fill="rgba(136, 19, 55, 0.2)" stroke="#fb7185" stroke-width="0.5"/>
        <text x="1130" y="249" fill="white" font-size="9" font-weight="600" text-anchor="middle">🎓 自动招聘 HR</text>
        <text x="1130" y="264" fill="#94a3b8" font-size="7" text-anchor="middle">搜索书籍策略 → 语义去重 → 注册新Agent</text>

        <rect x="1005" y="279" width="250" height="40" rx="5" fill="rgba(136, 19, 55, 0.2)" stroke="#fb7185" stroke-width="0.5"/>
        <text x="1130" y="296" fill="white" font-size="9" font-weight="600" text-anchor="middle">🚀 阶段推进</text>
        <text x="1130" y="311" fill="#94a3b8" font-size="7" text-anchor="middle">连续盈利 + 胜率达标 → 推进下一Phase</text>

        <!-- Audit connections -->
        <line x1="900" y1="155" x2="1003" y2="155" stroke="#fb7185" stroke-width="1" stroke-dasharray="4,4" marker-end="url(#arrow-rose)"/>
        <text x="950" y="148" fill="#fb7185" font-size="7">状态变更通知</text>

        <line x1="900" y1="220" x2="1003" y2="220" stroke="#fb7185" stroke-width="1" stroke-dasharray="4,4" marker-end="url(#arrow-rose)"/>
        <text x="950" y="213" fill="#fb7185" font-size="7">agent 上报胜率</text>

        <line x1="900" y1="285" x2="1003" y2="285" stroke="#fb7185" stroke-width="1" stroke-dasharray="4,4" marker-end="url(#arrow-rose)"/>
        <text x="950" y="278" fill="#fb7185" font-size="7">搜查策略→去重→注册</text>

        <!-- ============================================================
             飞书通知 (top-right)
             ============================================================ -->
        <rect x="990" y="400" width="280" height="70" rx="8" fill="rgba(34, 211, 238, 0.08)" stroke="#22d3ee" stroke-width="1"/>
        <text x="1130" y="425" fill="white" font-size="11" font-weight="600" text-anchor="middle">📲 飞书通知</text>
        <text x="1130" y="443" fill="#94a3b8" font-size="8" text-anchor="middle">成交通知 · 淘汰/复活 · 日终报告 · 熔断告警</text>
        <text x="1130" y="457" fill="#64748b" font-size="7" text-anchor="middle">chat_id: oc_10163...</text>

        <!-- Legend -->
        <rect x="990" y="510" width="280" height="210" rx="10" fill="rgba(15, 23, 42, 0.8)" stroke="#1e293b" stroke-width="1"/>
        <text x="1130" y="535" fill="white" font-size="10" font-weight="600" text-anchor="middle">Legend 图例</text>

        <rect x="1005" y="548" width="16" height="10" rx="2" fill="rgba(8, 51, 68, 0.4)" stroke="#22d3ee" stroke-width="1"/>
        <text x="1030" y="556" fill="#94a3b8" font-size="8">盯盘 / 策略 Agent</text>

        <rect x="1005" y="566" width="16" height="10" rx="2" fill="rgba(6, 78, 59, 0.4)" stroke="#34d399" stroke-width="1"/>
        <text x="1030" y="574" fill="#94a3b8" font-size="8">执行 Agent · 下单</text>

        <rect x="1005" y="584" width="16" height="10" rx="2" fill="rgba(120, 53, 15, 0.3)" stroke="#fbbf24" stroke-width="1"/>
        <text x="1030" y="592" fill="#94a3b8" font-size="8">选股 Agent · 外部 API</text>

        <rect x="1005" y="602" width="16" height="10" rx="2" fill="rgba(76, 29, 149, 0.3)" stroke="#a78bfa" stroke-width="1"/>
        <text x="1030" y="610" fill="#94a3b8" font-size="8">数据库 · 数据存储</text>

        <rect x="1005" y="620" width="16" height="10" rx="2" fill="rgba(136, 19, 55, 0.3)" stroke="#fb7185" stroke-width="1"/>
        <text x="1030" y="628" fill="#94a3b8" font-size="8">审计 / 安全</text>

        <rect x="1005" y="638" width="16" height="10" rx="2" fill="rgba(251, 146, 60, 0.2)" stroke="#fb923c" stroke-width="1"/>
        <text x="1030" y="646" fill="#94a3b8" font-size="8">选举委员会</text>

        <line x1="1005" y1="662" x2="1021" y2="662" stroke="#fb7185" stroke-width="1" stroke-dasharray="3,3"/>
        <text x="1030" y="665" fill="#94a3b8" font-size="8">通信 / Auth Flow</text>

        <line x1="1005" y1="680" x2="1021" y2="680" stroke="#a78bfa" stroke-width="1" stroke-dasharray="3,3"/>
        <text x="1030" y="683" fill="#94a3b8" font-size="8">数据写入</text>

        <!-- Phase badge -->
        <rect x="30" y="345" width="220" height="55" rx="8" fill="rgba(34, 211, 238, 0.08)" stroke="#22d3ee" stroke-width="1"/>
        <text x="140" y="368" fill="#22d3ee" font-size="9" font-weight="600" text-anchor="middle">📍 Current Phase</text>
        <text x="140" y="388" fill="white" font-size="12" font-weight="700" text-anchor="middle">Phase 1 · MVP</text>

        <!-- Core flow annotation -->
        <rect x="30" y="420" width="220" height="180" rx="8" fill="rgba(52, 211, 153, 0.05)" stroke="#34d399" stroke-width="1"/>
        <text x="140" y="445" fill="#34d399" font-size="9" font-weight="600" text-anchor="middle">🔄 核心交易流</text>
        <text x="140" y="465" fill="#94a3b8" font-size="8" text-anchor="middle">① 选股发现信号</text>
        <text x="140" y="483" fill="#94a3b8" font-size="8" text-anchor="middle">② 盯盘发起投票</text>
        <text x="140" y="501" fill="#94a3b8" font-size="8" text-anchor="middle">③ 50 策略并行投票</text>
        <text x="140" y="519" fill="#94a3b8" font-size="8" text-anchor="middle">④ 选举委员会聚合</text>
        <text x="140" y="537" fill="#94a3b8" font-size="8" text-anchor="middle">⑤ 执行下单 + 风控</text>
        <text x="140" y="555" fill="#94a3b8" font-size="8" text-anchor="middle">⑥ 广播结果</text>
        <text x="140" y="573" fill="#94a3b8" font-size="8" text-anchor="middle">⑦ 自判胜负上报</text>
        <text x="140" y="591" fill="#94a3b8" font-size="8" text-anchor="middle">⑧ 审计更新排名</text>

        <!-- Tech Stack badge -->
        <rect x="30" y="620" width="220" height="65" rx="8" fill="rgba(15, 23, 42, 0.5)" stroke="#1e293b" stroke-width="1"/>
        <text x="140" y="642" fill="#64748b" font-size="8" font-weight="600" text-anchor="middle">Tech Stack</text>
        <text x="140" y="660" fill="#94a3b8" font-size="7" text-anchor="middle">Hermes Kanban · TypeScript · Jest</text>
        <text x="140" y="674" fill="#94a3b8" font-size="7" text-anchor="middle">Longbridge SDK v4.1 · SQLite</text>
      </svg>